<svg width="21" height="21" viewBox="0 0 21 21" fill="none" xmlns="http://www.w3.org/2000/svg">
<path fill-rule="evenodd" clip-rule="evenodd" d="M2.83504 10.25C2.83504 8.05491 3.78045 5.83289 5.22884 4.36459C5.95314 3.63033 6.78037 3.10229 7.66504 2.84671V3.49998C7.66504 8.9317 12.0683 13.335 17.5 13.335H18.2985C18.1039 14.4401 17.5026 15.4411 16.6217 16.2535C15.3447 17.4313 13.5212 18.165 11.6768 18.165H10.75C6.3787 18.165 2.83504 14.6213 2.83504 10.25ZM18.2818 11.665C17.9693 9.90987 17.1148 8.29564 14.9096 6.0904C13.1793 4.36007 11.7858 3.44611 10.3954 2.94506C10.0394 2.81677 9.68514 2.73552 9.33504 2.69787V3.49998C9.33504 8.00939 12.9906 11.665 17.5 11.665H18.2818ZM10.9615 1.37396C8.30561 0.416878 5.80675 1.4007 4.03993 3.19181C2.28569 4.97018 1.16504 7.61254 1.16504 10.25C1.16504 15.5436 5.45639 19.835 10.75 19.835H11.6768C13.941 19.835 16.1686 18.9432 17.7539 17.4811C19.3478 16.0111 20.3329 13.9177 19.9576 11.5602C19.5961 9.28908 18.5218 7.3409 16.0905 4.90954C14.2499 3.069 12.6548 1.98415 10.9615 1.37396Z" fill="#8E8E93"/>
</svg>
