<svg width="18" height="18" viewBox="0 0 18 18" fill="none" xmlns="http://www.w3.org/2000/svg">
<path d="M9.08182 10.8681L9.08182 12.0752L9.93537 11.2216L11.8512 9.30578C11.8832 9.27383 11.935 9.27383 11.9669 9.30578C11.9989 9.33773 11.9989 9.38954 11.9669 9.42149L9.05786 12.3306C9.0259 12.3625 8.9741 12.3625 8.94215 12.3306L6.03306 9.42149C6.0011 9.38954 6.0011 9.33773 6.03306 9.30578C6.06501 9.27383 6.11681 9.27383 6.14876 9.30578L8.06463 11.2216L8.91818 12.0752L8.91818 10.8681L8.91818 5.36364C8.91818 5.31845 8.95481 5.28182 9 5.28182C9.04519 5.28182 9.08182 5.31845 9.08182 5.36364L9.08182 10.8681ZM9 0.499999C4.30558 0.499999 0.500001 4.30558 0.500001 9C0.5 13.6944 4.30558 17.5 9 17.5C13.6944 17.5 17.5 13.6944 17.5 9C17.5 4.30558 13.6944 0.5 9 0.499999Z" fill="#00B83E" stroke="white"/>
</svg>
