<svg width="24" height="24" viewBox="0 0 24 24" fill="none" xmlns="http://www.w3.org/2000/svg">
<path fill-rule="evenodd" clip-rule="evenodd" d="M12.0009 21.4999C17.2476 21.4999 21.5009 17.2466 21.5009 11.9999C21.5009 6.75317 17.2476 2.49988 12.0009 2.49988C6.75415 2.49988 2.50086 6.75317 2.50086 11.9999C2.50085 17.2466 6.75415 21.4999 12.0009 21.4999ZM11.4695 16.8159C11.7624 17.1088 12.2373 17.1088 12.5302 16.8159L15.9588 13.3874C16.2517 13.0945 16.2517 12.6196 15.9588 12.3267C15.6659 12.0338 15.191 12.0338 14.8981 12.3267L12.7499 14.4749L12.7499 7.71416C12.7499 7.29995 12.4141 6.96416 11.9999 6.96416C11.5857 6.96416 11.2499 7.29995 11.2499 7.71416L11.2499 14.4749L9.10164 12.3267C8.80874 12.0338 8.33387 12.0338 8.04098 12.3267C7.74808 12.6196 7.74808 13.0945 8.04098 13.3873L11.4695 16.8159Z" fill="#007AFF"/>
</svg>
