<svg width="44" height="44" viewBox="0 0 44 44" fill="none" xmlns="http://www.w3.org/2000/svg">
<path fill-rule="evenodd" clip-rule="evenodd" d="M11.8 22C11.8 16.3666 16.3666 11.8 22 11.8C27.6333 11.8 32.2 16.3666 32.2 22C32.2 27.6333 27.6333 32.2 22 32.2C16.3666 32.2 11.8 27.6333 11.8 22ZM22 10.2C15.483 10.2 10.2 15.483 10.2 22C10.2 28.5169 15.483 33.7999 22 33.7999C28.5169 33.7999 33.7999 28.5169 33.7999 22C33.7999 15.483 28.5169 10.2 22 10.2ZM22 23.25C22.6904 23.25 23.25 22.6903 23.25 22C23.25 21.3096 22.6904 20.75 22 20.75C21.3096 20.75 20.75 21.3096 20.75 22C20.75 22.6903 21.3096 23.25 22 23.25ZM18.25 22C18.25 22.6903 17.6904 23.25 17 23.25C16.3096 23.25 15.75 22.6903 15.75 22C15.75 21.3096 16.3096 20.75 17 20.75C17.6904 20.75 18.25 21.3096 18.25 22ZM27 23.25C27.6904 23.25 28.25 22.6903 28.25 22C28.25 21.3096 27.6904 20.75 27 20.75C26.3096 20.75 25.75 21.3096 25.75 22C25.75 22.6903 26.3096 23.25 27 23.25Z" fill="#007AFF"/>
</svg>
