<svg width="24" height="24" viewBox="0 0 24 24" fill="none" xmlns="http://www.w3.org/2000/svg">
<path fill-rule="evenodd" clip-rule="evenodd" d="M21.4286 12C21.4286 17.2072 17.2072 21.4286 12 21.4286C6.79273 21.4286 2.57141 17.2072 2.57141 12C2.57141 6.79273 6.79273 2.57141 12 2.57141C17.2072 2.57141 21.4286 6.79273 21.4286 12ZM5.51511 12.8008C5.7829 12.533 6.21707 12.533 6.48486 12.8008L7.8857 14.2017V8.14284C7.8857 7.76413 8.1927 7.45713 8.57141 7.45713C8.95012 7.45713 9.25713 7.76413 9.25713 8.14284V14.2017L10.658 12.8008C10.9258 12.533 11.3599 12.533 11.6277 12.8008C11.8955 13.0686 11.8955 13.5028 11.6277 13.7706L9.05628 16.342C8.7885 16.6098 8.35433 16.6098 8.08654 16.342L5.51511 13.7706C5.24732 13.5028 5.24732 13.0686 5.51511 12.8008ZM17.5151 11.1991C17.7829 11.4669 18.2171 11.4669 18.4849 11.1991C18.7526 10.9314 18.7526 10.4972 18.4849 10.2294L15.9134 7.65797C15.6456 7.39018 15.2115 7.39018 14.9437 7.65797L12.3723 10.2294C12.1045 10.4972 12.1045 10.9314 12.3723 11.1991C12.64 11.4669 13.0742 11.4669 13.342 11.1991L14.7428 9.7983V15.8571C14.7428 16.2358 15.0498 16.5428 15.4286 16.5428C15.8073 16.5428 16.1143 16.2358 16.1143 15.8571V9.7983L17.5151 11.1991Z" fill="#007AFF"/>
</svg>
