<svg width="20" height="20" viewBox="0 0 20 20" fill="none" xmlns="http://www.w3.org/2000/svg">
<path fill-rule="evenodd" clip-rule="evenodd" d="M9.99915 0.500122C4.75244 0.500122 0.499146 4.75342 0.499146 10.0001C0.499146 15.2468 4.75244 19.5001 9.99915 19.5001C15.2459 19.5001 19.4991 15.2468 19.4991 10.0001C19.4991 4.75342 15.2459 0.500122 9.99915 0.500122ZM10.5305 5.18408C10.2376 4.89118 9.76269 4.89118 9.46979 5.18408L6.04122 8.61265C5.74833 8.90554 5.74833 9.38042 6.04122 9.67331C6.33411 9.9662 6.80899 9.9662 7.10188 9.67331L9.25012 7.52507L9.25012 14.2858C9.25012 14.7 9.58591 15.0358 10.0001 15.0358C10.4143 15.0358 10.7501 14.7 10.7501 14.2858L10.7501 7.52507L12.8984 9.67331C13.1913 9.9662 13.6661 9.9662 13.959 9.67331C14.2519 9.38042 14.2519 8.90554 13.959 8.61265L10.5305 5.18408Z" fill="white"/>
</svg>
