<svg width="18" height="18" viewBox="0 0 18 18" fill="none" xmlns="http://www.w3.org/2000/svg">
<path d="M8.91818 7.13191V5.9248L8.06463 6.77835L6.14876 8.69422C6.11681 8.72617 6.06501 8.72617 6.03306 8.69422C6.0011 8.66227 6.0011 8.61046 6.03305 8.57851L8.94215 5.66942C8.9741 5.63747 9.0259 5.63747 9.05785 5.66942L11.9669 8.57851C11.9989 8.61046 11.9989 8.66226 11.9669 8.69422C11.935 8.72617 11.8832 8.72617 11.8512 8.69422L9.93537 6.77835L9.08182 5.9248V7.13191V12.6364C9.08182 12.6816 9.04519 12.7182 9 12.7182C8.95481 12.7182 8.91818 12.6816 8.91818 12.6364V7.13191ZM9 17.5C13.6944 17.5 17.5 13.6944 17.5 9C17.5 4.30558 13.6944 0.5 9 0.5C4.30558 0.5 0.5 4.30558 0.5 9C0.5 13.6944 4.30558 17.5 9 17.5Z" fill="#FFB801" stroke="white"/>
</svg>
